solid Exported from Blender-3.4.1
facet normal -0.000821 -0.911635 -0.411000
outer loop
vertex -0.845795 0.026485 -1.096440
vertex -0.524785 0.202940 -1.488475
vertex -0.416645 0.030830 -1.106935
endloop
endfacet
facet normal -0.251675 0.940745 0.227286
outer loop
vertex -0.132735 0.153775 0.670445
vertex -0.259840 0.153170 0.532205
vertex -0.378420 0.013860 0.977510
endloop
endfacet
facet normal -0.973979 0.191426 0.121329
outer loop
vertex -0.129520 2.562970 0.598090
vertex -0.065195 2.438170 1.311365
vertex -0.066070 2.762385 0.792816
endloop
endfacet
facet normal 0.262524 0.928928 0.261102
outer loop
vertex 0.452135 0.159145 -0.525195
vertex 0.322095 0.155555 -0.381675
vertex 0.569250 0.013905 -0.126225
endloop
endfacet
facet normal -0.687791 0.720281 -0.090212
outer loop
vertex -0.003420 1.522530 -0.111360
vertex -0.325610 1.197900 -0.246880
vertex -0.325765 1.261755 0.264140
endloop
endfacet
facet normal -0.866195 -0.327791 -0.377173
outer loop
vertex -0.390545 0.153065 -0.511960
vertex -0.263255 0.026445 -0.694245
vertex -0.505940 0.014020 -0.126110
endloop
endfacet
facet normal 0.739830 -0.076543 0.668426
outer loop
vertex 0.515565 0.812575 -0.520575
vertex 0.322095 0.155555 -0.381675
vertex 0.452135 0.159145 -0.525195
endloop
endfacet
facet normal 0.002810 -0.999991 -0.003196
outer loop
vertex -0.845795 0.026485 -1.096440
vertex -0.642768 0.024760 -0.378188
vertex -1.184190 0.023250 -0.381765
endloop
endfacet
facet normal 0.955940 -0.273353 -0.107036
outer loop
vertex -0.066365 0.153140 0.596925
vertex -0.054565 0.015050 1.054970
vertex -0.130290 0.031345 0.337055
endloop
endfacet
facet normal -0.859032 -0.073436 0.506626
outer loop
vertex -0.259840 0.153170 0.532205
vertex -0.198585 0.747935 0.722280
vertex -0.390280 0.747395 0.397165
endloop
endfacet
facet normal -0.413285 0.810238 -0.415585
outer loop
vertex -0.009565 1.392560 -0.701505
vertex -0.241720 1.124720 -0.992825
vertex -0.197080 1.323610 -0.649455
endloop
endfacet
facet normal 0.970007 -0.243072 0.001389
outer loop
vertex 0.061590 2.313590 1.377810
vertex 0.061590 2.310265 0.795925
vertex 0.126945 2.569925 0.595210
endloop
endfacet
facet normal -0.810458 -0.564675 -0.155885
outer loop
vertex 0.213885 0.012075 -0.072485
vertex 0.196460 0.159460 -0.515775
vertex 0.322010 0.029510 -0.697790
endloop
endfacet
facet normal -0.872737 -0.169400 0.457857
outer loop
vertex -0.293760 2.946510 0.426930
vertex -0.129520 2.562970 0.598090
vertex -0.066070 2.762385 0.792816
endloop
endfacet
facet normal -0.014016 0.847815 0.530106
outer loop
vertex 0.061590 2.437440 1.315885
vertex -0.066070 2.762385 0.792816
vertex -0.065195 2.438170 1.311365
endloop
endfacet
facet normal -0.851169 -0.493484 -0.178846
outer loop
vertex 0.053035 0.013380 1.052025
vertex 0.067360 0.153515 0.597180
vertex 0.191280 0.029595 0.349345
endloop
endfacet
facet normal -0.972098 -0.234536 0.004258
outer loop
vertex -0.129520 2.562970 0.598090
vertex -0.066845 2.306675 0.789670
vertex -0.066095 2.313870 1.357205
endloop
endfacet
facet normal -0.745139 0.161894 -0.646961
outer loop
vertex -0.129520 2.562970 0.598090
vertex -0.002625 2.370160 0.403690
vertex -0.130275 2.306615 0.534810
endloop
endfacet
facet normal 0.730875 0.161667 -0.663088
outer loop
vertex -0.002625 2.370160 0.403690
vertex 0.126945 2.569925 0.595210
vertex 0.130390 2.306615 0.534810
endloop
endfacet
facet normal -0.968835 -0.056671 0.241139
outer loop
vertex -0.129520 2.562970 0.598090
vertex -0.130275 2.306615 0.534810
vertex -0.066845 2.306675 0.789670
endloop
endfacet
facet normal 0.305232 0.913890 0.267654
outer loop
vertex -0.066365 0.153140 0.596925
vertex -0.132735 0.153775 0.670445
vertex -0.054565 0.015050 1.054970
endloop
endfacet
facet normal 0.009336 -0.999676 -0.023675
outer loop
vertex -0.054565 0.015050 1.054970
vertex -0.378420 0.013860 0.977510
vertex -0.130290 0.031345 0.337055
endloop
endfacet
facet normal -0.004436 -0.999708 -0.023758
outer loop
vertex -0.263255 0.026445 -0.694245
vertex -0.215035 0.011400 -0.070175
vertex -0.505940 0.014020 -0.126110
endloop
endfacet
facet normal 0.000958 -0.999616 -0.027706
outer loop
vertex 0.322010 0.029510 -0.697790
vertex 0.569250 0.013905 -0.126225
vertex 0.213885 0.012075 -0.072485
endloop
endfacet
facet normal 0.002793 -0.999996 -0.000650
outer loop
vertex -0.642768 0.024760 -0.378188
vertex -0.853712 0.023487 0.672902
vertex -1.184190 0.023250 -0.381765
endloop
endfacet
facet normal -0.884132 -0.165844 0.436814
outer loop
vertex -0.454460 0.800855 -0.516290
vertex -0.263220 0.153675 -0.374925
vertex -0.262715 0.805805 -0.126310
endloop
endfacet
facet normal 0.000000 -0.999775 0.021230
outer loop
vertex -0.128905 0.744215 0.788485
vertex 0.189485 0.742835 0.723500
vertex 0.129020 0.744215 0.788485
endloop
endfacet
facet normal 0.688513 -0.051447 -0.723397
outer loop
vertex 0.130390 2.306615 0.534810
vertex -0.003115 1.523250 0.463455
vertex -0.002625 2.370160 0.403690
endloop
endfacet
facet normal 0.607112 -0.776379 -0.169267
outer loop
vertex -0.003775 0.609220 -0.386705
vertex 0.321265 0.805525 -0.121275
vertex 0.196325 0.680585 0.003665
endloop
endfacet
facet normal 0.879966 -0.041022 0.473263
outer loop
vertex 0.189485 0.742835 0.723500
vertex 0.387765 1.268045 0.400350
vertex 0.321145 1.338875 0.530360
endloop
endfacet
facet normal -0.975691 0.178173 -0.127595
outer loop
vertex -0.323380 0.545265 -0.770545
vertex -0.197080 1.323610 -0.649455
vertex -0.327690 0.423185 -0.908060
endloop
endfacet
facet normal 0.003378 -0.999743 -0.022406
outer loop
vertex 0.191280 0.029595 0.349345
vertex 0.444420 0.016355 0.978280
vertex 0.053035 0.013380 1.052025
endloop
endfacet
facet normal 0.002859 -0.999621 0.027396
outer loop
vertex -0.422928 0.035531 1.067397
vertex -0.853712 0.023487 0.672902
vertex -0.640463 0.023747 0.660132
endloop
endfacet
facet normal 0.888039 0.004186 -0.459748
outer loop
vertex 0.389135 0.740115 0.398190
vertex 0.318530 1.270530 0.266640
vertex 0.387765 1.268045 0.400350
endloop
endfacet
facet normal -0.778038 -0.464337 -0.423141
outer loop
vertex -0.258610 0.681390 0.002670
vertex -0.262715 0.805805 -0.126310
vertex -0.003775 0.609220 -0.386705
endloop
endfacet
facet normal -0.994392 -0.090145 -0.055307
outer loop
vertex -0.325765 1.261755 0.264140
vertex -0.262715 0.805805 -0.126310
vertex -0.258610 0.681390 0.002670
endloop
endfacet
facet normal -0.373436 0.897510 -0.234567
outer loop
vertex -0.329550 1.326150 0.516555
vertex -0.003420 1.396530 0.266640
vertex -0.325765 1.261755 0.264140
endloop
endfacet
facet normal -0.010642 -0.487186 0.873233
outer loop
vertex -0.260655 1.335105 1.113400
vertex 0.129020 0.744215 0.788485
vertex 0.321360 1.328235 1.116660
endloop
endfacet
facet normal -0.901032 0.402351 -0.162033
outer loop
vertex -0.454460 0.800855 -0.516290
vertex -0.325610 1.197900 -0.246880
vertex -0.197080 1.323610 -0.649455
endloop
endfacet
facet normal 0.353983 0.904485 -0.237914
outer loop
vertex -0.003420 1.396530 0.266640
vertex 0.321145 1.338875 0.530360
vertex 0.318530 1.270530 0.266640
endloop
endfacet
facet normal -0.304279 0.900286 0.311288
outer loop
vertex 0.322095 0.155555 -0.381675
vertex 0.196460 0.159460 -0.515775
vertex 0.213885 0.012075 -0.072485
endloop
endfacet
facet normal -0.365686 -0.411595 -0.834783
outer loop
vertex 0.291290 2.882180 0.372460
vertex -0.003250 2.694455 0.594045
vertex 0.235830 2.946635 0.364975
endloop
endfacet
facet normal 0.339101 0.871844 0.353411
outer loop
vertex -0.131730 0.159530 -0.515535
vertex -0.263220 0.153675 -0.374925
vertex -0.215035 0.011400 -0.070175
endloop
endfacet
facet normal 0.757300 -0.648844 -0.074157
outer loop
vertex -0.131730 0.159530 -0.515535
vertex -0.215035 0.011400 -0.070175
vertex -0.263255 0.026445 -0.694245
endloop
endfacet
facet normal 0.655412 0.736133 -0.168946
outer loop
vertex -0.003420 1.522530 -0.111360
vertex 0.326320 1.197850 -0.246860
vertex -0.009565 1.392560 -0.701505
endloop
endfacet
facet normal -0.001665 0.310066 0.950714
outer loop
vertex 0.061590 2.310265 0.795925
vertex -0.260655 1.335105 1.113400
vertex 0.321360 1.328235 1.116660
endloop
endfacet
facet normal -0.901323 0.001030 -0.433146
outer loop
vertex -0.325765 1.261755 0.264140
vertex -0.390280 0.747395 0.397165
vertex -0.389790 1.262515 0.397370
endloop
endfacet
facet normal 0.970395 0.206117 0.125893
outer loop
vertex 0.061590 2.437440 1.315885
vertex 0.126945 2.569925 0.595210
vertex 0.060230 2.765850 0.788680
endloop
endfacet
facet normal -0.451301 0.430363 -0.781738
outer loop
vertex -0.133015 0.385735 -1.539155
vertex -0.526580 0.542910 -1.225420
vertex -0.069285 1.125710 -1.168575
endloop
endfacet
facet normal -0.370673 0.881102 0.293701
outer loop
vertex -0.003420 1.522530 -0.111360
vertex -0.325765 1.261755 0.264140
vertex -0.003420 1.396530 0.266640
endloop
endfacet
facet normal -0.001360 -0.984570 -0.174987
outer loop
vertex 0.196325 0.680585 0.003665
vertex -0.002670 0.610605 0.398955
vertex -0.258610 0.681390 0.002670
endloop
endfacet
facet normal 0.384315 -0.398351 -0.832837
outer loop
vertex -0.003250 2.694455 0.594045
vertex -0.293760 2.887320 0.367740
vertex -0.231905 2.942605 0.369840
endloop
endfacet
facet normal -0.990275 0.127954 0.054626
outer loop
vertex -0.197080 1.323610 -0.649455
vertex -0.241720 1.124720 -0.992825
vertex -0.327690 0.423185 -0.908060
endloop
endfacet
facet normal -0.036765 0.942014 -0.333555
outer loop
vertex 0.060230 2.765850 0.788680
vertex -0.003250 2.694455 0.594045
vertex -0.066070 2.762385 0.792816
endloop
endfacet
facet normal -0.002136 -0.983501 0.180892
outer loop
vertex 0.196325 0.680585 0.003665
vertex -0.258610 0.681390 0.002670
vertex -0.003775 0.609220 -0.386705
endloop
endfacet
facet normal 0.348065 0.889362 0.296454
outer loop
vertex -0.003420 1.522530 -0.111360
vertex -0.003420 1.396530 0.266640
vertex 0.318530 1.270530 0.266640
endloop
endfacet
facet normal -0.703515 -0.049622 -0.708946
outer loop
vertex -0.003115 1.523250 0.463455
vertex -0.130275 2.306615 0.534810
vertex -0.002625 2.370160 0.403690
endloop
endfacet
facet normal 0.324607 -0.824306 -0.463842
outer loop
vertex -0.133015 0.385735 -1.539155
vertex -0.416645 0.030830 -1.106935
vertex -0.524785 0.202940 -1.488475
endloop
endfacet
facet normal -0.824367 -0.003624 -0.566043
outer loop
vertex 0.196460 0.159460 -0.515775
vertex 0.375220 0.542085 -0.778565
vertex 0.322010 0.029510 -0.697790
endloop
endfacet
facet normal -0.275551 0.927696 0.251897
outer loop
vertex -0.263220 0.153675 -0.374925
vertex -0.390545 0.153065 -0.511960
vertex -0.505940 0.014020 -0.126110
endloop
endfacet
facet normal -0.013340 -0.923217 0.384047
outer loop
vertex 0.189485 0.742835 0.723500
vertex -0.198585 0.747935 0.722280
vertex -0.002670 0.610605 0.398955
endloop
endfacet
facet normal 0.061261 0.929913 0.362641
outer loop
vertex 0.053035 0.013380 1.052025
vertex 0.444420 0.016355 0.978280
vertex 0.191325 0.155815 0.663420
endloop
endfacet
facet normal -0.002578 -0.986048 0.166440
outer loop
vertex -0.323380 0.545265 -0.770545
vertex 0.375220 0.542085 -0.778565
vertex -0.003775 0.609220 -0.386705
endloop
endfacet
facet normal 0.969322 -0.197993 -0.145647
outer loop
vertex -0.130290 0.031345 0.337055
vertex -0.002670 0.610605 0.398955
vertex -0.066365 0.153140 0.596925
endloop
endfacet
facet normal -0.859537 -0.170466 -0.481806
outer loop
vertex -0.390545 0.153065 -0.511960
vertex -0.323380 0.545265 -0.770545
vertex -0.263255 0.026445 -0.694245
endloop
endfacet
facet normal 0.863723 0.051993 0.501279
outer loop
vertex -0.132735 0.153775 0.670445
vertex -0.002670 0.610605 0.398955
vertex -0.198585 0.747935 0.722280
endloop
endfacet
facet normal 0.441648 0.790440 0.424443
outer loop
vertex -0.293760 2.946510 0.426930
vertex -0.003250 2.694455 0.594045
vertex -0.231905 2.942605 0.369840
endloop
endfacet
facet normal 0.976158 -0.217017 -0.004296
outer loop
vertex 0.321360 1.328235 1.116660
vertex 0.189485 0.742835 0.723500
vertex 0.321145 1.338875 0.530360
endloop
endfacet
facet normal 0.685104 -0.374021 0.625093
outer loop
vertex -0.003775 0.609220 -0.386705
vertex -0.263220 0.153675 -0.374925
vertex -0.131730 0.159530 -0.515535
endloop
endfacet
facet normal -0.605550 0.532803 -0.591126
outer loop
vertex -0.526580 0.542910 -1.225420
vertex -0.241720 1.124720 -0.992825
vertex -0.069285 1.125710 -1.168575
endloop
endfacet
facet normal -0.511677 0.669640 0.538302
outer loop
vertex -0.853712 0.023487 0.672902
vertex -0.422928 0.035531 1.067397
vertex -0.716380 0.089885 0.720845
endloop
endfacet
facet normal -0.865862 -0.353186 -0.354320
outer loop
vertex -0.259840 0.153170 0.532205
vertex -0.258610 0.681390 0.002670
vertex -0.130290 0.031345 0.337055
endloop
endfacet
facet normal -0.967382 0.229037 0.108230
outer loop
vertex -0.066845 2.306675 0.789670
vertex -0.329550 1.326150 0.516555
vertex -0.260655 1.335105 1.113400
endloop
endfacet
facet normal 0.850192 -0.065893 0.522333
outer loop
vertex 0.189485 0.742835 0.723500
vertex 0.261640 0.152955 0.531640
vertex 0.389135 0.740115 0.398190
endloop
endfacet
facet normal 0.498638 0.866810 -0.000262
outer loop
vertex -0.980470 0.219045 -0.314210
vertex -0.640463 0.023747 0.660132
vertex -0.642768 0.024760 -0.378188
endloop
endfacet
facet normal 0.324317 0.933528 0.152788
outer loop
vertex 0.191325 0.155815 0.663420
vertex 0.444420 0.016355 0.978280
vertex 0.261640 0.152955 0.531640
endloop
endfacet
facet normal -0.478789 0.794065 0.374462
outer loop
vertex -0.003250 2.694455 0.594045
vertex 0.288245 2.946070 0.433190
vertex 0.235830 2.946635 0.364975
endloop
endfacet
facet normal 0.885603 -0.016810 -0.464139
outer loop
vertex 0.197775 1.009120 -1.134055
vertex 0.515565 0.812575 -0.520575
vertex 0.375220 0.542085 -0.778565
endloop
endfacet
facet normal 0.855156 -0.353057 -0.379551
outer loop
vertex 0.452135 0.159145 -0.525195
vertex 0.569250 0.013905 -0.126225
vertex 0.322010 0.029510 -0.697790
endloop
endfacet
facet normal -0.290698 0.936959 0.193912
outer loop
vertex -0.009565 1.392560 -0.701505
vertex -0.197080 1.323610 -0.649455
vertex -0.314940 1.209335 -0.273980
endloop
endfacet
facet normal -0.653582 -0.462832 0.598847
outer loop
vertex 0.322095 0.155555 -0.381675
vertex -0.003775 0.609220 -0.386705
vertex 0.196460 0.159460 -0.515775
endloop
endfacet
facet normal 0.061586 0.896965 0.437791
outer loop
vertex 0.213885 0.012075 -0.072485
vertex 0.569250 0.013905 -0.126225
vertex 0.322095 0.155555 -0.381675
endloop
endfacet
facet normal 0.965820 -0.045885 0.255121
outer loop
vertex 0.126945 2.569925 0.595210
vertex 0.061590 2.310265 0.795925
vertex 0.130390 2.306615 0.534810
endloop
endfacet
facet normal 0.950713 0.186259 0.247895
outer loop
vertex 0.061590 2.310265 0.795925
vertex 0.321145 1.338875 0.530360
vertex 0.130390 2.306615 0.534810
endloop
endfacet
facet normal -0.088052 0.931155 0.353833
outer loop
vertex -0.378420 0.013860 0.977510
vertex -0.054565 0.015050 1.054970
vertex -0.132735 0.153775 0.670445
endloop
endfacet
facet normal -0.169929 0.943265 0.285263
outer loop
vertex 0.191325 0.155815 0.663420
vertex 0.067360 0.153515 0.597180
vertex 0.053035 0.013380 1.052025
endloop
endfacet
facet normal 0.339992 0.888706 0.307582
outer loop
vertex -0.231905 2.942605 0.369840
vertex -0.353832 3.044123 0.211294
vertex -0.293760 2.946510 0.426930
endloop
endfacet
facet normal -0.884365 -0.034684 0.465506
outer loop
vertex -0.389790 1.262515 0.397370
vertex -0.198585 0.747935 0.722280
vertex -0.329550 1.326150 0.516555
endloop
endfacet
facet normal 0.843664 -0.167938 -0.509929
outer loop
vertex 0.375220 0.542085 -0.778565
vertex 0.452135 0.159145 -0.525195
vertex 0.322010 0.029510 -0.697790
endloop
endfacet
facet normal -0.362795 0.886862 0.286105
outer loop
vertex 0.288245 2.946070 0.433190
vertex 0.351923 3.043722 0.211239
vertex 0.235830 2.946635 0.364975
endloop
endfacet
facet normal -0.848449 -0.243081 -0.470156
outer loop
vertex 0.191280 0.029595 0.349345
vertex -0.002670 0.610605 0.398955
vertex 0.196325 0.680585 0.003665
endloop
endfacet
facet normal 0.927614 0.021965 -0.372893
outer loop
vertex 0.444420 0.016355 0.978280
vertex 0.191280 0.029595 0.349345
vertex 0.261640 0.152955 0.531640
endloop
endfacet
facet normal -0.848862 -0.056454 0.525591
outer loop
vertex -0.002670 0.610605 0.398955
vertex 0.191325 0.155815 0.663420
vertex 0.189485 0.742835 0.723500
endloop
endfacet
facet normal -0.460010 0.858681 -0.225960
outer loop
vertex -0.325765 1.261755 0.264140
vertex -0.389790 1.262515 0.397370
vertex -0.329550 1.326150 0.516555
endloop
endfacet
facet normal -0.712925 0.664756 0.223244
outer loop
vertex -0.853712 0.023487 0.672902
vertex -0.980470 0.219045 -0.314210
vertex -1.184190 0.023250 -0.381765
endloop
endfacet
facet normal 0.913812 -0.256083 0.315229
outer loop
vertex 0.288245 2.946070 0.433190
vertex 0.126945 2.569925 0.595210
vertex 0.291290 2.882180 0.372460
endloop
endfacet
facet normal -0.141906 0.442688 0.885376
outer loop
vertex 0.061590 2.437440 1.315885
vertex -0.066095 2.313870 1.357205
vertex 0.061590 2.313590 1.377810
endloop
endfacet
facet normal 0.890905 0.128015 0.435776
outer loop
vertex 0.515565 0.812575 -0.520575
vertex 0.326320 1.197850 -0.246860
vertex 0.321265 0.805525 -0.121275
endloop
endfacet
facet normal 0.770988 -0.037241 -0.635760
outer loop
vertex -0.131730 0.159530 -0.515535
vertex -0.323380 0.545265 -0.770545
vertex -0.003775 0.609220 -0.386705
endloop
endfacet
facet normal 0.467378 0.854650 -0.226123
outer loop
vertex 0.318530 1.270530 0.266640
vertex 0.321145 1.338875 0.530360
vertex 0.387765 1.268045 0.400350
endloop
endfacet
facet normal 0.228253 0.945573 0.231932
outer loop
vertex 0.192485 1.330560 -0.647580
vertex -0.009565 1.392560 -0.701505
vertex 0.315055 1.209335 -0.273980
endloop
endfacet
facet normal 0.836580 -0.093085 -0.539878
outer loop
vertex -0.133015 0.385735 -1.539155
vertex 0.197775 1.009120 -1.134055
vertex 0.375220 0.542085 -0.778565
endloop
endfacet
facet normal 0.400891 0.772437 -0.492573
outer loop
vertex -0.009565 1.392560 -0.701505
vertex 0.197775 1.009120 -1.134055
vertex -0.069285 1.125710 -1.168575
endloop
endfacet
facet normal 0.290172 0.408423 -0.865442
outer loop
vertex -0.133015 0.385735 -1.539155
vertex -0.069285 1.125710 -1.168575
vertex 0.197775 1.009120 -1.134055
endloop
endfacet
facet normal 0.594802 -0.767296 -0.239725
outer loop
vertex -0.133015 0.385735 -1.539155
vertex 0.375220 0.542085 -0.778565
vertex -0.416645 0.030830 -1.106935
endloop
endfacet
facet normal -0.976835 -0.180172 0.115461
outer loop
vertex -0.198585 0.747935 0.722280
vertex -0.260655 1.335105 1.113400
vertex -0.329550 1.326150 0.516555
endloop
endfacet
facet normal 0.897834 -0.343318 0.275729
outer loop
vertex -0.642768 0.024760 -0.378188
vertex -0.416645 0.030830 -1.106935
vertex -0.327690 0.423185 -0.908060
endloop
endfacet
facet normal 0.027325 -0.999547 0.012636
outer loop
vertex 0.061590 2.310265 0.795925
vertex -0.066095 2.313870 1.357205
vertex -0.066845 2.306675 0.789670
endloop
endfacet
facet normal -0.793516 0.369781 -0.483316
outer loop
vertex -0.845795 0.026485 -1.096440
vertex -0.526580 0.542910 -1.225420
vertex -0.524785 0.202940 -1.488475
endloop
endfacet
facet normal -0.074879 0.898982 0.431537
outer loop
vertex -0.505940 0.014020 -0.126110
vertex -0.215035 0.011400 -0.070175
vertex -0.263220 0.153675 -0.374925
endloop
endfacet
facet normal 0.454004 0.561268 0.691996
outer loop
vertex -0.327690 0.423185 -0.908060
vertex -0.980470 0.219045 -0.314210
vertex -0.642768 0.024760 -0.378188
endloop
endfacet
facet normal 0.999838 -0.007679 0.016255
outer loop
vertex 0.318530 1.270530 0.266640
vertex 0.321265 0.805525 -0.121275
vertex 0.326320 1.197850 -0.246860
endloop
endfacet
facet normal -0.864130 -0.366600 -0.344796
outer loop
vertex -0.259840 0.153170 0.532205
vertex -0.130290 0.031345 0.337055
vertex -0.378420 0.013860 0.977510
endloop
endfacet
facet normal -0.091808 -0.433565 0.896433
outer loop
vertex 0.375220 0.542085 -0.778565
vertex -0.327690 0.423185 -0.908060
vertex -0.416645 0.030830 -1.106935
endloop
endfacet
facet normal 0.952196 -0.148994 -0.266692
outer loop
vertex 0.196325 0.680585 0.003665
vertex 0.261640 0.152955 0.531640
vertex 0.191280 0.029595 0.349345
endloop
endfacet
facet normal -0.965136 -0.185083 0.185084
outer loop
vertex -0.293760 2.946510 0.426930
vertex -0.353832 3.044123 0.211294
vertex -0.293760 2.887320 0.367740
endloop
endfacet
facet normal 0.965696 -0.153243 0.209638
outer loop
vertex 0.291290 2.882180 0.372460
vertex 0.351923 3.043722 0.211239
vertex 0.288245 2.946070 0.433190
endloop
endfacet
facet normal -0.499342 -0.510917 -0.699730
outer loop
vertex 0.291290 2.882180 0.372460
vertex 0.235830 2.946635 0.364975
vertex 0.351923 3.043722 0.211239
endloop
endfacet
facet normal 0.485956 -0.516939 -0.704714
outer loop
vertex -0.293760 2.887320 0.367740
vertex -0.353832 3.044123 0.211294
vertex -0.231905 2.942605 0.369840
endloop
endfacet
facet normal 0.489595 0.823937 -0.285350
outer loop
vertex -0.640463 0.023747 0.660132
vertex -0.716380 0.089885 0.720845
vertex -0.422928 0.035531 1.067397
endloop
endfacet
facet normal -0.824156 0.559419 -0.088418
outer loop
vertex -0.314940 1.209335 -0.273980
vertex -0.197080 1.323610 -0.649455
vertex -0.325610 1.197900 -0.246880
endloop
endfacet
facet normal 0.749712 0.661015 -0.031477
outer loop
vertex 0.192485 1.330560 -0.647580
vertex 0.315055 1.209335 -0.273980
vertex 0.326320 1.197850 -0.246860
endloop
endfacet
facet normal 0.013628 0.922767 0.385118
outer loop
vertex -0.009565 1.392560 -0.701505
vertex 0.326320 1.197850 -0.246860
vertex 0.315055 1.209335 -0.273980
endloop
endfacet
facet normal -0.019063 0.923830 0.382327
outer loop
vertex -0.325610 1.197900 -0.246880
vertex -0.009565 1.392560 -0.701505
vertex -0.314940 1.209335 -0.273980
endloop
endfacet
facet normal -0.612702 0.736448 -0.286777
outer loop
vertex -0.980470 0.219045 -0.314210
vertex -0.845795 0.026485 -1.096440
vertex -1.184190 0.023250 -0.381765
endloop
endfacet
facet normal -0.994333 0.043047 0.097204
outer loop
vertex -0.129520 2.562970 0.598090
vertex -0.066095 2.313870 1.357205
vertex -0.065195 2.438170 1.311365
endloop
endfacet
facet normal -0.668647 0.727610 -0.153282
outer loop
vertex -0.003420 1.522530 -0.111360
vertex -0.009565 1.392560 -0.701505
vertex -0.325610 1.197900 -0.246880
endloop
endfacet
facet normal 0.887192 -0.170617 0.428697
outer loop
vertex 0.515565 0.812575 -0.520575
vertex 0.321265 0.805525 -0.121275
vertex 0.322095 0.155555 -0.381675
endloop
endfacet
facet normal 0.009996 -0.999936 -0.005227
outer loop
vertex -0.845795 0.026485 -1.096440
vertex -0.416645 0.030830 -1.106935
vertex -0.642768 0.024760 -0.378188
endloop
endfacet
facet normal -0.728656 -0.139258 0.670573
outer loop
vertex -0.259840 0.153170 0.532205
vertex -0.132735 0.153775 0.670445
vertex -0.198585 0.747935 0.722280
endloop
endfacet
facet normal -0.421221 0.809645 -0.408714
outer loop
vertex -0.009565 1.392560 -0.701505
vertex -0.069285 1.125710 -1.168575
vertex -0.241720 1.124720 -0.992825
endloop
endfacet
facet normal -0.922399 -0.273111 0.273112
outer loop
vertex -0.293760 2.946510 0.426930
vertex -0.293760 2.887320 0.367740
vertex -0.129520 2.562970 0.598090
endloop
endfacet
facet normal -0.005976 0.848766 0.528735
outer loop
vertex 0.061590 2.437440 1.315885
vertex 0.060230 2.765850 0.788680
vertex -0.066070 2.762385 0.792816
endloop
endfacet
facet normal -0.484562 0.442121 -0.754803
outer loop
vertex -0.129520 2.562970 0.598090
vertex -0.003250 2.694455 0.594045
vertex -0.002625 2.370160 0.403690
endloop
endfacet
facet normal 0.441880 0.454746 -0.773271
outer loop
vertex -0.002625 2.370160 0.403690
vertex -0.003250 2.694455 0.594045
vertex 0.126945 2.569925 0.595210
endloop
endfacet
facet normal 0.001161 -0.999999 -0.000978
outer loop
vertex -0.642768 0.024760 -0.378188
vertex -0.640463 0.023747 0.660132
vertex -0.853712 0.023487 0.672902
endloop
endfacet
facet normal -0.730761 -0.067561 0.679282
outer loop
vertex -0.454460 0.800855 -0.516290
vertex -0.390545 0.153065 -0.511960
vertex -0.263220 0.153675 -0.374925
endloop
endfacet
facet normal -0.012996 -0.999014 -0.042456
outer loop
vertex -0.128905 0.744215 0.788485
vertex -0.198585 0.747935 0.722280
vertex 0.189485 0.742835 0.723500
endloop
endfacet
facet normal 0.228782 0.049567 -0.972215
outer loop
vertex 0.130390 2.306615 0.534810
vertex 0.321145 1.338875 0.530360
vertex -0.003115 1.523250 0.463455
endloop
endfacet
facet normal 0.852290 0.000071 0.523069
outer loop
vertex 0.189485 0.742835 0.723500
vertex 0.389135 0.740115 0.398190
vertex 0.387765 1.268045 0.400350
endloop
endfacet
facet normal -0.760331 0.218537 -0.611669
outer loop
vertex -0.323380 0.545265 -0.770545
vertex -0.454460 0.800855 -0.516290
vertex -0.197080 1.323610 -0.649455
endloop
endfacet
facet normal 0.897784 0.010303 -0.440315
outer loop
vertex 0.389135 0.740115 0.398190
vertex 0.196325 0.680585 0.003665
vertex 0.318530 1.270530 0.266640
endloop
endfacet
facet normal -0.988091 -0.152721 0.018784
outer loop
vertex -0.325765 1.261755 0.264140
vertex -0.325610 1.197900 -0.246880
vertex -0.262715 0.805805 -0.126310
endloop
endfacet
facet normal -0.511889 0.722649 -0.464487
outer loop
vertex -0.329550 1.326150 0.516555
vertex -0.003115 1.523250 0.463455
vertex -0.003420 1.396530 0.266640
endloop
endfacet
facet normal 0.000000 -0.481834 0.876262
outer loop
vertex -0.260655 1.335105 1.113400
vertex -0.128905 0.744215 0.788485
vertex 0.129020 0.744215 0.788485
endloop
endfacet
facet normal -0.897322 -0.008237 0.441299
outer loop
vertex -0.454460 0.800855 -0.516290
vertex -0.262715 0.805805 -0.126310
vertex -0.325610 1.197900 -0.246880
endloop
endfacet
facet normal 0.507940 0.723898 -0.466872
outer loop
vertex -0.003420 1.396530 0.266640
vertex -0.003115 1.523250 0.463455
vertex 0.321145 1.338875 0.530360
endloop
endfacet
facet normal -0.374714 -0.399586 -0.836612
outer loop
vertex 0.291290 2.882180 0.372460
vertex 0.126945 2.569925 0.595210
vertex -0.003250 2.694455 0.594045
endloop
endfacet
facet normal 0.678975 0.728276 -0.092779
outer loop
vertex -0.003420 1.522530 -0.111360
vertex 0.318530 1.270530 0.266640
vertex 0.326320 1.197850 -0.246860
endloop
endfacet
facet normal -0.055070 0.325507 0.943935
outer loop
vertex 0.061590 2.310265 0.795925
vertex -0.066845 2.306675 0.789670
vertex -0.260655 1.335105 1.113400
endloop
endfacet
facet normal -0.946165 0.035468 -0.321735
outer loop
vertex -0.325765 1.261755 0.264140
vertex -0.258610 0.681390 0.002670
vertex -0.390280 0.747395 0.397165
endloop
endfacet
facet normal 0.993825 0.049624 0.099248
outer loop
vertex 0.061590 2.437440 1.315885
vertex 0.061590 2.313590 1.377810
vertex 0.126945 2.569925 0.595210
endloop
endfacet
facet normal -0.361218 0.569446 -0.738412
outer loop
vertex -0.133015 0.385735 -1.539155
vertex -0.524785 0.202940 -1.488475
vertex -0.526580 0.542910 -1.225420
endloop
endfacet
facet normal 0.385920 -0.396242 -0.833101
outer loop
vertex -0.003250 2.694455 0.594045
vertex -0.129520 2.562970 0.598090
vertex -0.293760 2.887320 0.367740
endloop
endfacet
facet normal -0.194128 0.057689 -0.979279
outer loop
vertex -0.003115 1.523250 0.463455
vertex -0.329550 1.326150 0.516555
vertex -0.130275 2.306615 0.534810
endloop
endfacet
facet normal -0.723767 -0.127614 -0.678142
outer loop
vertex 0.196460 0.159460 -0.515775
vertex -0.003775 0.609220 -0.386705
vertex 0.375220 0.542085 -0.778565
endloop
endfacet
facet normal 0.004216 -0.747888 0.663811
outer loop
vertex -0.323380 0.545265 -0.770545
vertex -0.327690 0.423185 -0.908060
vertex 0.375220 0.542085 -0.778565
endloop
endfacet
facet normal 0.823632 -0.122281 -0.553784
outer loop
vertex -0.130290 0.031345 0.337055
vertex -0.258610 0.681390 0.002670
vertex -0.002670 0.610605 0.398955
endloop
endfacet
facet normal -0.920053 -0.093322 -0.380518
outer loop
vertex -0.390545 0.153065 -0.511960
vertex -0.454460 0.800855 -0.516290
vertex -0.323380 0.545265 -0.770545
endloop
endfacet
facet normal 0.730530 0.182996 0.657904
outer loop
vertex -0.132735 0.153775 0.670445
vertex -0.066365 0.153140 0.596925
vertex -0.002670 0.610605 0.398955
endloop
endfacet
facet normal 0.668569 0.742438 -0.042430
outer loop
vertex -0.293760 2.946510 0.426930
vertex -0.066070 2.762385 0.792816
vertex -0.003250 2.694455 0.594045
endloop
endfacet
facet normal 0.614993 -0.530411 0.583479
outer loop
vertex 0.321360 1.328235 1.116660
vertex 0.129020 0.744215 0.788485
vertex 0.189485 0.742835 0.723500
endloop
endfacet
facet normal 0.555864 -0.296497 0.776598
outer loop
vertex -0.003775 0.609220 -0.386705
vertex -0.262715 0.805805 -0.126310
vertex -0.263220 0.153675 -0.374925
endloop
endfacet
facet normal -0.805750 0.167385 0.568111
outer loop
vertex -0.526580 0.542910 -1.225420
vertex -0.327690 0.423185 -0.908060
vertex -0.241720 1.124720 -0.992825
endloop
endfacet
facet normal -0.927337 -0.263868 -0.265367
outer loop
vertex -0.259840 0.153170 0.532205
vertex -0.390280 0.747395 0.397165
vertex -0.258610 0.681390 0.002670
endloop
endfacet
facet normal -0.952871 0.189252 0.237108
outer loop
vertex -0.066845 2.306675 0.789670
vertex -0.130275 2.306615 0.534810
vertex -0.329550 1.326150 0.516555
endloop
endfacet
facet normal 0.880942 -0.045448 0.471037
outer loop
vertex 0.189485 0.742835 0.723500
vertex 0.191325 0.155815 0.663420
vertex 0.261640 0.152955 0.531640
endloop
endfacet
facet normal 0.626496 0.776882 -0.062904
outer loop
vertex -0.980470 0.219045 -0.314210
vertex -0.716380 0.089885 0.720845
vertex -0.640463 0.023747 0.660132
endloop
endfacet
facet normal -0.669262 0.741094 -0.053563
outer loop
vertex -0.003250 2.694455 0.594045
vertex 0.060230 2.765850 0.788680
vertex 0.288245 2.946070 0.433190
endloop
endfacet
facet normal 0.842205 0.453997 -0.290822
outer loop
vertex 0.197775 1.009120 -1.134055
vertex 0.192485 1.330560 -0.647580
vertex 0.515565 0.812575 -0.520575
endloop
endfacet
facet normal -0.470280 -0.328724 0.819010
outer loop
vertex 0.322095 0.155555 -0.381675
vertex 0.321265 0.805525 -0.121275
vertex -0.003775 0.609220 -0.386705
endloop
endfacet
facet normal 0.966391 0.257041 0.004311
outer loop
vertex 0.061590 2.310265 0.795925
vertex 0.321360 1.328235 1.116660
vertex 0.321145 1.338875 0.530360
endloop
endfacet
facet normal -0.861412 0.000617 0.507907
outer loop
vertex -0.389790 1.262515 0.397370
vertex -0.390280 0.747395 0.397165
vertex -0.198585 0.747935 0.722280
endloop
endfacet
facet normal 0.910103 -0.085479 -0.405470
outer loop
vertex 0.375220 0.542085 -0.778565
vertex 0.515565 0.812575 -0.520575
vertex 0.452135 0.159145 -0.525195
endloop
endfacet
facet normal -0.907759 -0.276054 -0.315859
outer loop
vertex 0.191280 0.029595 0.349345
vertex 0.067360 0.153515 0.597180
vertex -0.002670 0.610605 0.398955
endloop
endfacet
facet normal -0.454581 0.294847 0.840489
outer loop
vertex -0.002670 0.610605 0.398955
vertex 0.067360 0.153515 0.597180
vertex 0.191325 0.155815 0.663420
endloop
endfacet
facet normal -0.487430 0.842464 0.229493
outer loop
vertex -0.853712 0.023487 0.672902
vertex -0.716380 0.089885 0.720845
vertex -0.980470 0.219045 -0.314210
endloop
endfacet
facet normal 0.866341 -0.169076 0.469964
outer loop
vertex 0.288245 2.946070 0.433190
vertex 0.060230 2.765850 0.788680
vertex 0.126945 2.569925 0.595210
endloop
endfacet
facet normal -0.031435 0.346035 0.937695
outer loop
vertex 0.061590 2.437440 1.315885
vertex -0.065195 2.438170 1.311365
vertex -0.066095 2.313870 1.357205
endloop
endfacet
facet normal 0.855294 0.504384 -0.118615
outer loop
vertex 0.515565 0.812575 -0.520575
vertex 0.192485 1.330560 -0.647580
vertex 0.326320 1.197850 -0.246860
endloop
endfacet
facet normal 0.803405 0.005542 -0.595407
outer loop
vertex -0.131730 0.159530 -0.515535
vertex -0.263255 0.026445 -0.694245
vertex -0.323380 0.545265 -0.770545
endloop
endfacet
facet normal 0.373746 0.775722 -0.508496
outer loop
vertex -0.009565 1.392560 -0.701505
vertex 0.192485 1.330560 -0.647580
vertex 0.197775 1.009120 -1.134055
endloop
endfacet
facet normal -0.617514 -0.480227 0.622943
outer loop
vertex -0.198585 0.747935 0.722280
vertex -0.128905 0.744215 0.788485
vertex -0.260655 1.335105 1.113400
endloop
endfacet
facet normal -0.003114 -0.999979 0.005714
outer loop
vertex 0.061590 2.310265 0.795925
vertex 0.061590 2.313590 1.377810
vertex -0.066095 2.313870 1.357205
endloop
endfacet
facet normal 0.018227 0.939198 0.342892
outer loop
vertex -0.327690 0.423185 -0.908060
vertex -0.526580 0.542910 -1.225420
vertex -0.980470 0.219045 -0.314210
endloop
endfacet
facet normal 0.815225 -0.368157 0.447068
outer loop
vertex 0.318530 1.270530 0.266640
vertex 0.196325 0.680585 0.003665
vertex 0.321265 0.805525 -0.121275
endloop
endfacet
facet normal 0.878739 -0.278851 -0.387376
outer loop
vertex 0.196325 0.680585 0.003665
vertex 0.389135 0.740115 0.398190
vertex 0.261640 0.152955 0.531640
endloop
endfacet
facet normal -0.849130 0.460070 -0.259448
outer loop
vertex -0.980470 0.219045 -0.314210
vertex -0.526580 0.542910 -1.225420
vertex -0.845795 0.026485 -1.096440
endloop
endfacet
facet normal -0.999950 -0.000642 -0.009978
outer loop
vertex -0.010805 1.918813 0.125972
vertex -0.013815 2.106336 0.415547
vertex -0.013815 2.370153 0.398581
endloop
endfacet
facet normal -0.999649 0.001701 0.026451
outer loop
vertex -0.013815 2.370153 0.398581
vertex -0.013815 2.106336 0.415547
vertex -0.012310 2.118712 0.471628
endloop
endfacet
facet normal -0.999750 0.000515 0.022372
outer loop
vertex -0.013815 2.370153 0.398581
vertex -0.012310 2.118712 0.471628
vertex -0.012310 2.358019 0.466114
endloop
endfacet
facet normal -0.999751 -0.007830 0.020873
outer loop
vertex -0.012310 2.689883 0.590608
vertex -0.013815 2.370153 0.398581
vertex -0.012310 2.358019 0.466114
endloop
endfacet
facet normal -0.999801 -0.007017 0.018704
outer loop
vertex -0.012310 2.689883 0.590608
vertex -0.012310 2.358019 0.466114
vertex -0.010805 2.658293 0.659204
endloop
endfacet
facet normal 0.000000 0.908315 0.418286
outer loop
vertex 0.012425 2.689883 0.590608
vertex -0.012310 2.689883 0.590608
vertex -0.010805 2.658293 0.659204
endloop
endfacet
facet normal 0.000000 0.908313 0.418291
outer loop
vertex 0.012425 2.689883 0.590608
vertex -0.010805 2.658293 0.659204
vertex 0.010920 2.658293 0.659204
endloop
endfacet
facet normal 0.999800 -0.006634 0.018881
outer loop
vertex 0.013930 2.370153 0.398581
vertex 0.012425 2.689883 0.590608
vertex 0.010920 2.658293 0.659204
endloop
endfacet
facet normal 0.999749 -0.008351 0.020779
outer loop
vertex 0.013930 2.370153 0.398581
vertex 0.010920 2.658293 0.659204
vertex 0.012425 2.358019 0.466114
endloop
endfacet
facet normal 0.999779 0.014084 -0.015615
outer loop
vertex 0.010920 2.322017 0.162442
vertex 0.012425 2.689883 0.590608
vertex 0.013930 2.370153 0.398581
endloop
endfacet
facet normal 0.000000 -0.979849 0.199742
outer loop
vertex 0.010920 2.322017 0.162442
vertex 0.013930 2.370153 0.398581
vertex -0.013815 2.370153 0.398581
endloop
endfacet
facet normal 0.000000 -0.979849 0.199741
outer loop
vertex 0.010920 2.322017 0.162442
vertex -0.013815 2.370153 0.398581
vertex -0.010805 2.322017 0.162442
endloop
endfacet
facet normal -0.000003 0.517011 -0.855979
outer loop
vertex 0.013930 2.370153 0.398581
vertex 0.010920 1.918813 0.125972
vertex -0.010805 1.918813 0.125972
endloop
endfacet
facet normal 0.000000 0.517011 -0.855979
outer loop
vertex 0.013930 2.370153 0.398581
vertex -0.010805 1.918813 0.125972
vertex -0.013815 2.370153 0.398581
endloop
endfacet
facet normal 0.999950 -0.000642 -0.009978
outer loop
vertex 0.010920 1.918813 0.125972
vertex 0.013930 2.370153 0.398581
vertex 0.013930 2.106336 0.415547
endloop
endfacet
facet normal 0.000000 -0.839372 0.543557
outer loop
vertex 0.010920 1.918813 0.125972
vertex 0.013930 2.106336 0.415547
vertex -0.013815 2.106336 0.415547
endloop
endfacet
facet normal 0.000000 -0.839372 0.543558
outer loop
vertex 0.010920 1.918813 0.125972
vertex -0.013815 2.106336 0.415547
vertex -0.010805 1.918813 0.125972
endloop
endfacet
facet normal 0.000000 0.291183 -0.956668
outer loop
vertex 0.010920 1.793390 0.320295
vertex -0.010805 1.793390 0.320295
vertex -0.013815 2.106336 0.415547
endloop
endfacet
facet normal 0.000000 0.291182 -0.956668
outer loop
vertex 0.010920 1.793390 0.320295
vertex -0.013815 2.106336 0.415547
vertex 0.013930 2.106336 0.415547
endloop
endfacet
facet normal -0.000005 -0.874992 0.484138
outer loop
vertex 0.012425 1.857371 0.435929
vertex -0.012310 1.857371 0.435929
vertex -0.010805 1.793390 0.320295
endloop
endfacet
facet normal 0.000000 -0.874991 0.484139
outer loop
vertex 0.012425 1.857371 0.435929
vertex -0.010805 1.793390 0.320295
vertex 0.010920 1.793390 0.320295
endloop
endfacet
facet normal -0.000005 -0.993795 0.111223
outer loop
vertex -0.012310 1.857371 0.435929
vertex 0.012425 1.857371 0.435929
vertex 0.010920 1.863153 0.487594
endloop
endfacet
facet normal 0.000000 -0.993795 0.111222
outer loop
vertex -0.012310 1.857371 0.435929
vertex 0.010920 1.863153 0.487594
vertex -0.010805 1.863153 0.487594
endloop
endfacet
facet normal -0.999558 -0.003625 0.029523
outer loop
vertex -0.013815 2.106336 0.415547
vertex -0.012310 1.857371 0.435929
vertex -0.010805 1.863153 0.487594
endloop
endfacet
facet normal -0.999606 -0.004154 0.027742
outer loop
vertex -0.013815 2.106336 0.415547
vertex -0.010805 1.863153 0.487594
vertex -0.012310 2.118712 0.471628
endloop
endfacet
facet normal -0.000002 0.062353 0.998054
outer loop
vertex 0.012425 2.118712 0.471628
vertex -0.012310 2.118712 0.471628
vertex -0.010805 1.863153 0.487594
endloop
endfacet
facet normal 0.000000 0.062352 0.998054
outer loop
vertex 0.012425 2.118712 0.471628
vertex -0.010805 1.863153 0.487594
vertex 0.010920 1.863153 0.487594
endloop
endfacet
facet normal 0.999610 -0.003778 0.027660
outer loop
vertex 0.012425 1.857371 0.435929
vertex 0.013930 2.106336 0.415547
vertex 0.012425 2.118712 0.471628
endloop
endfacet
facet normal 0.999555 -0.004039 0.029569
outer loop
vertex 0.012425 1.857371 0.435929
vertex 0.012425 2.118712 0.471628
vertex 0.010920 1.863153 0.487594
endloop
endfacet
facet normal 0.999745 0.001450 0.022540
outer loop
vertex 0.013930 2.106336 0.415547
vertex 0.013930 2.370153 0.398581
vertex 0.012425 2.358019 0.466114
endloop
endfacet
facet normal 0.999644 0.000615 0.026691
outer loop
vertex 0.013930 2.106336 0.415547
vertex 0.012425 2.358019 0.466114
vertex 0.012425 2.118712 0.471628
endloop
endfacet
facet normal 0.000000 0.023034 0.999735
outer loop
vertex 0.012425 2.118712 0.471628
vertex 0.012425 2.358019 0.466114
vertex -0.012310 2.358019 0.466114
endloop
endfacet
facet normal 0.000000 0.023034 0.999735
outer loop
vertex 0.012425 2.118712 0.471628
vertex -0.012310 2.358019 0.466114
vertex -0.012310 2.118712 0.471628
endloop
endfacet
facet normal -0.000004 -0.540869 0.841107
outer loop
vertex 0.012425 2.358019 0.466114
vertex 0.010920 2.658293 0.659204
vertex -0.010805 2.658293 0.659204
endloop
endfacet
facet normal 0.000000 -0.540868 0.841107
outer loop
vertex 0.012425 2.358019 0.466114
vertex -0.010805 2.658293 0.659204
vertex -0.012310 2.358019 0.466114
endloop
endfacet
facet normal -0.999934 -0.006802 -0.009251
outer loop
vertex -0.010805 1.793390 0.320295
vertex -0.012310 1.857371 0.435929
vertex -0.013815 2.106336 0.415547
endloop
endfacet
facet normal 0.999934 -0.006802 -0.009251
outer loop
vertex 0.010920 1.793390 0.320295
vertex 0.013930 2.106336 0.415547
vertex 0.012425 1.857371 0.435929
endloop
endfacet
facet normal 0.000000 0.758498 -0.651676
outer loop
vertex 0.012425 2.689883 0.590608
vertex 0.010920 2.322017 0.162442
vertex -0.010805 2.322017 0.162442
endloop
endfacet
facet normal 0.000000 0.758498 -0.651676
outer loop
vertex 0.012425 2.689883 0.590608
vertex -0.010805 2.322017 0.162442
vertex -0.012310 2.689883 0.590608
endloop
endfacet
facet normal -0.999779 0.014084 -0.015615
outer loop
vertex -0.010805 2.322017 0.162442
vertex -0.013815 2.370153 0.398581
vertex -0.012310 2.689883 0.590608
endloop
endfacet
facet normal 0.485134 -0.511168 0.709473
outer loop
vertex 0.282396 2.245014 -0.248686
vertex 0.179180 3.299630 0.581732
vertex 0.108436 3.325605 0.648821
endloop
endfacet
facet normal 0.388977 -0.550749 0.738493
outer loop
vertex 0.282396 2.245014 -0.248686
vertex 0.108436 3.325605 0.648821
vertex 0.211659 2.235160 -0.218776
endloop
endfacet
facet normal 0.524674 0.657193 0.541123
outer loop
vertex 0.179180 3.299630 0.581732
vertex 0.549908 4.962608 -1.797408
vertex 0.462897 5.012221 -1.773298
endloop
endfacet
facet normal 0.668850 0.560589 0.488241
outer loop
vertex 0.179180 3.299630 0.581732
vertex 0.462897 5.012221 -1.773298
vertex 0.108436 3.325605 0.648821
endloop
endfacet
facet normal 0.103352 -0.340919 -0.934394
outer loop
vertex 0.549908 4.962608 -1.797408
vertex 0.523659 3.936876 -1.426067
vertex 0.449142 3.951458 -1.439629
endloop
endfacet
facet normal -0.397309 -0.270669 -0.876860
outer loop
vertex 0.549908 4.962608 -1.797408
vertex 0.449142 3.951458 -1.439629
vertex 0.462897 5.012221 -1.773298
endloop
endfacet
facet normal 0.972509 0.056865 0.225817
outer loop
vertex 0.549908 4.962608 -1.797408
vertex 0.131353 3.347393 0.411894
vertex 0.523659 3.936876 -1.426067
endloop
endfacet
facet normal 0.914148 -0.399825 0.066887
outer loop
vertex 0.523659 3.936876 -1.426067
vertex 0.131353 3.347393 0.411894
vertex 0.311384 3.227552 -2.764963
endloop
endfacet
facet normal 0.409703 0.777615 -0.476925
outer loop
vertex 0.523659 3.936876 -1.426067
vertex 0.311384 3.227552 -2.764963
vertex 0.244033 3.259933 -2.770025
endloop
endfacet
facet normal 0.251579 0.842340 -0.476625
outer loop
vertex 0.523659 3.936876 -1.426067
vertex 0.244033 3.259933 -2.770025
vertex 0.449142 3.951458 -1.439629
endloop
endfacet
facet normal -0.059435 -0.946258 -0.317905
outer loop
vertex 0.311384 3.227552 -2.764963
vertex 0.114089 2.966101 -1.949858
vertex 0.031091 2.970679 -1.947967
endloop
endfacet
facet normal -0.374389 -0.840072 -0.392571
outer loop
vertex 0.311384 3.227552 -2.764963
vertex 0.031091 2.970679 -1.947967
vertex 0.244033 3.259933 -2.770025
endloop
endfacet
facet normal 0.040556 0.435075 -0.899481
outer loop
vertex 0.114089 2.966101 -1.949858
vertex 0.348991 2.318304 -2.252603
vertex 0.266974 2.319761 -2.255597
endloop
endfacet
facet normal 0.003028 0.428186 -0.903686
outer loop
vertex 0.114089 2.966101 -1.949858
vertex 0.266974 2.319761 -2.255597
vertex 0.031091 2.970679 -1.947967
endloop
endfacet
facet normal -0.928276 -0.366424 0.063544
outer loop
vertex 0.031091 2.970679 -1.947967
vertex 0.266974 2.319761 -2.255597
vertex 0.036191 3.370795 0.433787
endloop
endfacet
facet normal -0.891165 0.447719 -0.073305
outer loop
vertex 0.031091 2.970679 -1.947967
vertex 0.036191 3.370795 0.433787
vertex 0.244033 3.259933 -2.770025
endloop
endfacet
facet normal -0.908977 0.410374 -0.073169
outer loop
vertex 0.449142 3.951458 -1.439629
vertex 0.244033 3.259933 -2.770025
vertex 0.036191 3.370795 0.433787
endloop
endfacet
facet normal -0.970646 -0.060626 -0.232748
outer loop
vertex 0.462897 5.012221 -1.773298
vertex 0.449142 3.951458 -1.439629
vertex 0.036191 3.370795 0.433787
endloop
endfacet
facet normal -0.662181 0.656913 0.360529
outer loop
vertex 0.462897 5.012221 -1.773298
vertex 0.036191 3.370795 0.433787
vertex 0.108436 3.325605 0.648821
endloop
endfacet
facet normal -0.800101 -0.386995 0.458337
outer loop
vertex 0.036191 3.370795 0.433787
vertex 0.025634 2.302677 -0.486505
vertex 0.211659 2.235160 -0.218776
endloop
endfacet
facet normal -0.924695 -0.286766 0.250408
outer loop
vertex 0.036191 3.370795 0.433787
vertex 0.211659 2.235160 -0.218776
vertex 0.108436 3.325605 0.648821
endloop
endfacet
facet normal -0.999927 0.011872 -0.002308
outer loop
vertex 0.027601 2.324143 -1.228231
vertex 0.025634 2.302677 -0.486505
vertex 0.036191 3.370795 0.433787
endloop
endfacet
facet normal -0.979513 -0.201204 -0.008421
outer loop
vertex 0.025634 2.302677 -0.486505
vertex 0.027601 2.324143 -1.228231
vertex 0.251953 1.190923 -0.248301
endloop
endfacet
facet normal -0.980613 -0.194481 0.023999
outer loop
vertex 0.025634 2.302677 -0.486505
vertex 0.251953 1.190923 -0.248301
vertex 0.249629 1.267942 0.280856
endloop
endfacet
facet normal -0.754792 0.277423 0.594412
outer loop
vertex 0.211659 2.235160 -0.218776
vertex 0.025634 2.302677 -0.486505
vertex 0.249629 1.267942 0.280856
endloop
endfacet
facet normal -0.998859 -0.015960 0.045013
outer loop
vertex 0.211659 2.235160 -0.218776
vertex 0.249629 1.267942 0.280856
vertex 0.260157 1.345298 0.541902
endloop
endfacet
facet normal -0.050840 -0.966275 0.252445
outer loop
vertex 0.325434 1.270087 0.267166
vertex 0.326160 1.335625 0.518169
vertex 0.260157 1.345298 0.541902
endloop
endfacet
facet normal 0.077707 -0.956740 0.280377
outer loop
vertex 0.325434 1.270087 0.267166
vertex 0.260157 1.345298 0.541902
vertex 0.249629 1.267942 0.280856
endloop
endfacet
facet normal 0.999220 0.037412 -0.012659
outer loop
vertex 0.282396 2.245014 -0.248686
vertex 0.326160 1.335625 0.518169
vertex 0.325434 1.270087 0.267166
endloop
endfacet
facet normal 0.770890 -0.270982 -0.576452
outer loop
vertex 0.282396 2.245014 -0.248686
vertex 0.325434 1.270087 0.267166
vertex 0.113091 2.313176 -0.507140
endloop
endfacet
facet normal 0.983561 0.178102 -0.029801
outer loop
vertex 0.113091 2.313176 -0.507140
vertex 0.325434 1.270087 0.267166
vertex 0.321627 1.204732 -0.249073
endloop
endfacet
facet normal 0.983086 0.182944 -0.008622
outer loop
vertex 0.113091 2.313176 -0.507140
vertex 0.321627 1.204732 -0.249073
vertex 0.106301 2.316023 -1.220979
endloop
endfacet
facet normal 0.050625 -0.990856 0.125068
outer loop
vertex 0.321627 1.204732 -0.249073
vertex 0.325434 1.270087 0.267166
vertex 0.249629 1.267942 0.280856
endloop
endfacet
facet normal 0.193947 -0.970661 0.142132
outer loop
vertex 0.321627 1.204732 -0.249073
vertex 0.249629 1.267942 0.280856
vertex 0.251953 1.190923 -0.248301
endloop
endfacet
facet normal 0.118550 -0.640566 -0.758697
outer loop
vertex 0.106301 2.316023 -1.220979
vertex 0.321627 1.204732 -0.249073
vertex 0.251953 1.190923 -0.248301
endloop
endfacet
facet normal 0.002262 -0.653836 -0.756633
outer loop
vertex 0.106301 2.316023 -1.220979
vertex 0.251953 1.190923 -0.248301
vertex 0.027601 2.324143 -1.228231
endloop
endfacet
facet normal -0.100244 -0.994629 -0.025781
outer loop
vertex 0.348991 2.318304 -2.252603
vertex 0.106301 2.316023 -1.220979
vertex 0.027601 2.324143 -1.228231
endloop
endfacet
facet normal -0.017757 -0.999842 0.000128
outer loop
vertex 0.348991 2.318304 -2.252603
vertex 0.027601 2.324143 -1.228231
vertex 0.266974 2.319761 -2.255597
endloop
endfacet
facet normal -0.912859 0.347589 -0.214176
outer loop
vertex 0.027601 2.324143 -1.228231
vertex 0.036191 3.370795 0.433787
vertex 0.266974 2.319761 -2.255597
endloop
endfacet
facet normal 0.927752 0.367301 -0.066080
outer loop
vertex 0.114089 2.966101 -1.949858
vertex 0.131353 3.347393 0.411894
vertex 0.348991 2.318304 -2.252603
endloop
endfacet
facet normal 0.886233 -0.458294 0.067511
outer loop
vertex 0.114089 2.966101 -1.949858
vertex 0.311384 3.227552 -2.764963
vertex 0.131353 3.347393 0.411894
endloop
endfacet
facet normal 0.908626 -0.359231 0.212960
outer loop
vertex 0.106301 2.316023 -1.220979
vertex 0.348991 2.318304 -2.252603
vertex 0.131353 3.347393 0.411894
endloop
endfacet
facet normal 0.999912 -0.009171 -0.009548
outer loop
vertex 0.106301 2.316023 -1.220979
vertex 0.131353 3.347393 0.411894
vertex 0.113091 2.313176 -0.507140
endloop
endfacet
facet normal 0.948414 0.248170 -0.197288
outer loop
vertex 0.131353 3.347393 0.411894
vertex 0.179180 3.299630 0.581732
vertex 0.282396 2.245014 -0.248686
endloop
endfacet
facet normal 0.817925 0.374026 -0.437154
outer loop
vertex 0.131353 3.347393 0.411894
vertex 0.282396 2.245014 -0.248686
vertex 0.113091 2.313176 -0.507140
endloop
endfacet
facet normal 0.641729 -0.671951 -0.369685
outer loop
vertex 0.549908 4.962608 -1.797408
vertex 0.179180 3.299630 0.581732
vertex 0.131353 3.347393 0.411894
endloop
endfacet
facet normal 0.224354 0.634507 0.739639
outer loop
vertex 0.326160 1.335625 0.518169
vertex 0.282396 2.245014 -0.248686
vertex 0.211659 2.235160 -0.218776
endloop
endfacet
facet normal 0.344244 0.620832 0.704318
outer loop
vertex 0.326160 1.335625 0.518169
vertex 0.211659 2.235160 -0.218776
vertex 0.260157 1.345298 0.541902
endloop
endfacet
facet normal -0.388977 -0.550749 0.738493
outer loop
vertex -0.282396 2.245014 -0.248686
vertex -0.211659 2.235160 -0.218776
vertex -0.108436 3.325605 0.648821
endloop
endfacet
facet normal -0.485134 -0.511168 0.709473
outer loop
vertex -0.282396 2.245014 -0.248686
vertex -0.108436 3.325605 0.648821
vertex -0.179180 3.299630 0.581732
endloop
endfacet
facet normal -0.668850 0.560589 0.488241
outer loop
vertex -0.179180 3.299630 0.581732
vertex -0.108436 3.325605 0.648821
vertex -0.462897 5.012221 -1.773298
endloop
endfacet
facet normal -0.524674 0.657193 0.541123
outer loop
vertex -0.179180 3.299630 0.581732
vertex -0.462897 5.012221 -1.773298
vertex -0.549908 4.962608 -1.797408
endloop
endfacet
facet normal 0.397309 -0.270669 -0.876860
outer loop
vertex -0.549908 4.962608 -1.797408
vertex -0.462897 5.012221 -1.773298
vertex -0.449142 3.951458 -1.439629
endloop
endfacet
facet normal -0.103352 -0.340919 -0.934394
outer loop
vertex -0.549908 4.962608 -1.797408
vertex -0.449142 3.951458 -1.439629
vertex -0.523659 3.936876 -1.426067
endloop
endfacet
facet normal -0.972509 0.056865 0.225817
outer loop
vertex -0.549908 4.962608 -1.797408
vertex -0.523659 3.936876 -1.426067
vertex -0.131353 3.347393 0.411894
endloop
endfacet
facet normal -0.914148 -0.399825 0.066887
outer loop
vertex -0.523659 3.936876 -1.426067
vertex -0.311384 3.227552 -2.764963
vertex -0.131353 3.347393 0.411894
endloop
endfacet
facet normal -0.251579 0.842340 -0.476625
outer loop
vertex -0.523659 3.936876 -1.426067
vertex -0.449142 3.951458 -1.439629
vertex -0.244033 3.259933 -2.770025
endloop
endfacet
facet normal -0.409703 0.777615 -0.476925
outer loop
vertex -0.523659 3.936876 -1.426067
vertex -0.244033 3.259933 -2.770025
vertex -0.311384 3.227552 -2.764963
endloop
endfacet
facet normal 0.374389 -0.840072 -0.392571
outer loop
vertex -0.311384 3.227552 -2.764963
vertex -0.244033 3.259933 -2.770025
vertex -0.031091 2.970679 -1.947967
endloop
endfacet
facet normal 0.059435 -0.946258 -0.317905
outer loop
vertex -0.311384 3.227552 -2.764963
vertex -0.031091 2.970679 -1.947967
vertex -0.114089 2.966101 -1.949858
endloop
endfacet
facet normal -0.003028 0.428186 -0.903686
outer loop
vertex -0.114089 2.966101 -1.949858
vertex -0.031091 2.970679 -1.947967
vertex -0.266974 2.319761 -2.255597
endloop
endfacet
facet normal -0.040556 0.435075 -0.899481
outer loop
vertex -0.114089 2.966101 -1.949858
vertex -0.266974 2.319761 -2.255597
vertex -0.348991 2.318304 -2.252603
endloop
endfacet
facet normal 0.928276 -0.366424 0.063544
outer loop
vertex -0.031091 2.970679 -1.947967
vertex -0.036191 3.370795 0.433787
vertex -0.266974 2.319761 -2.255597
endloop
endfacet
facet normal 0.891165 0.447719 -0.073305
outer loop
vertex -0.031091 2.970679 -1.947967
vertex -0.244033 3.259933 -2.770025
vertex -0.036191 3.370795 0.433787
endloop
endfacet
facet normal 0.908977 0.410374 -0.073169
outer loop
vertex -0.449142 3.951458 -1.439629
vertex -0.036191 3.370795 0.433787
vertex -0.244033 3.259933 -2.770025
endloop
endfacet
facet normal 0.970646 -0.060626 -0.232748
outer loop
vertex -0.462897 5.012221 -1.773298
vertex -0.036191 3.370795 0.433787
vertex -0.449142 3.951458 -1.439629
endloop
endfacet
facet normal 0.662181 0.656913 0.360529
outer loop
vertex -0.462897 5.012221 -1.773298
vertex -0.108436 3.325605 0.648821
vertex -0.036191 3.370795 0.433787
endloop
endfacet
facet normal 0.924695 -0.286766 0.250408
outer loop
vertex -0.036191 3.370795 0.433787
vertex -0.108436 3.325605 0.648821
vertex -0.211659 2.235160 -0.218776
endloop
endfacet
facet normal 0.800101 -0.386995 0.458337
outer loop
vertex -0.036191 3.370795 0.433787
vertex -0.211659 2.235160 -0.218776
vertex -0.025634 2.302677 -0.486505
endloop
endfacet
facet normal 0.999927 0.011872 -0.002308
outer loop
vertex -0.027601 2.324143 -1.228231
vertex -0.036191 3.370795 0.433787
vertex -0.025634 2.302677 -0.486505
endloop
endfacet
facet normal 0.980613 -0.194481 0.023999
outer loop
vertex -0.025634 2.302677 -0.486505
vertex -0.249629 1.267942 0.280856
vertex -0.251953 1.190923 -0.248301
endloop
endfacet
facet normal 0.979513 -0.201204 -0.008421
outer loop
vertex -0.025634 2.302677 -0.486505
vertex -0.251953 1.190923 -0.248301
vertex -0.027601 2.324143 -1.228231
endloop
endfacet
facet normal 0.998859 -0.015960 0.045013
outer loop
vertex -0.211659 2.235160 -0.218776
vertex -0.260157 1.345298 0.541902
vertex -0.249629 1.267942 0.280856
endloop
endfacet
facet normal 0.754792 0.277423 0.594412
outer loop
vertex -0.211659 2.235160 -0.218776
vertex -0.249629 1.267942 0.280856
vertex -0.025634 2.302677 -0.486505
endloop
endfacet
facet normal -0.077707 -0.956740 0.280377
outer loop
vertex -0.325434 1.270087 0.267166
vertex -0.249629 1.267942 0.280856
vertex -0.260157 1.345298 0.541902
endloop
endfacet
facet normal 0.050840 -0.966275 0.252445
outer loop
vertex -0.325434 1.270087 0.267166
vertex -0.260157 1.345298 0.541902
vertex -0.326160 1.335625 0.518169
endloop
endfacet
facet normal -0.770890 -0.270982 -0.576452
outer loop
vertex -0.282396 2.245014 -0.248686
vertex -0.113091 2.313176 -0.507140
vertex -0.325434 1.270087 0.267166
endloop
endfacet
facet normal -0.999220 0.037412 -0.012659
outer loop
vertex -0.282396 2.245014 -0.248686
vertex -0.325434 1.270087 0.267166
vertex -0.326160 1.335625 0.518169
endloop
endfacet
facet normal -0.983086 0.182944 -0.008622
outer loop
vertex -0.113091 2.313176 -0.507140
vertex -0.106301 2.316023 -1.220979
vertex -0.321627 1.204732 -0.249073
endloop
endfacet
facet normal -0.983561 0.178102 -0.029801
outer loop
vertex -0.113091 2.313176 -0.507140
vertex -0.321627 1.204732 -0.249073
vertex -0.325434 1.270087 0.267166
endloop
endfacet
facet normal -0.193947 -0.970661 0.142132
outer loop
vertex -0.321627 1.204732 -0.249073
vertex -0.251953 1.190923 -0.248301
vertex -0.249629 1.267942 0.280856
endloop
endfacet
facet normal -0.050625 -0.990856 0.125068
outer loop
vertex -0.321627 1.204732 -0.249073
vertex -0.249629 1.267942 0.280856
vertex -0.325434 1.270087 0.267166
endloop
endfacet
facet normal -0.002262 -0.653836 -0.756633
outer loop
vertex -0.106301 2.316023 -1.220979
vertex -0.027601 2.324143 -1.228231
vertex -0.251953 1.190923 -0.248301
endloop
endfacet
facet normal -0.118550 -0.640566 -0.758697
outer loop
vertex -0.106301 2.316023 -1.220979
vertex -0.251953 1.190923 -0.248301
vertex -0.321627 1.204732 -0.249073
endloop
endfacet
facet normal 0.017757 -0.999842 0.000128
outer loop
vertex -0.348991 2.318304 -2.252603
vertex -0.266974 2.319761 -2.255597
vertex -0.027601 2.324143 -1.228231
endloop
endfacet
facet normal 0.100244 -0.994629 -0.025781
outer loop
vertex -0.348991 2.318304 -2.252603
vertex -0.027601 2.324143 -1.228231
vertex -0.106301 2.316023 -1.220979
endloop
endfacet
facet normal 0.912859 0.347589 -0.214176
outer loop
vertex -0.027601 2.324143 -1.228231
vertex -0.266974 2.319761 -2.255597
vertex -0.036191 3.370795 0.433787
endloop
endfacet
facet normal -0.927752 0.367301 -0.066080
outer loop
vertex -0.114089 2.966101 -1.949858
vertex -0.348991 2.318304 -2.252603
vertex -0.131353 3.347393 0.411894
endloop
endfacet
facet normal -0.886233 -0.458294 0.067511
outer loop
vertex -0.114089 2.966101 -1.949858
vertex -0.131353 3.347393 0.411894
vertex -0.311384 3.227552 -2.764963
endloop
endfacet
facet normal -0.908626 -0.359231 0.212960
outer loop
vertex -0.106301 2.316023 -1.220979
vertex -0.131353 3.347393 0.411894
vertex -0.348991 2.318304 -2.252603
endloop
endfacet
facet normal -0.999912 -0.009171 -0.009548
outer loop
vertex -0.106301 2.316023 -1.220979
vertex -0.113091 2.313176 -0.507140
vertex -0.131353 3.347393 0.411894
endloop
endfacet
facet normal -0.817925 0.374026 -0.437154
outer loop
vertex -0.131353 3.347393 0.411894
vertex -0.113091 2.313176 -0.507140
vertex -0.282396 2.245014 -0.248686
endloop
endfacet
facet normal -0.948414 0.248170 -0.197288
outer loop
vertex -0.131353 3.347393 0.411894
vertex -0.282396 2.245014 -0.248686
vertex -0.179180 3.299630 0.581732
endloop
endfacet
facet normal -0.641729 -0.671951 -0.369685
outer loop
vertex -0.549908 4.962608 -1.797408
vertex -0.131353 3.347393 0.411894
vertex -0.179180 3.299630 0.581732
endloop
endfacet
facet normal -0.344244 0.620832 0.704318
outer loop
vertex -0.326160 1.335625 0.518169
vertex -0.260157 1.345298 0.541902
vertex -0.211659 2.235160 -0.218776
endloop
endfacet
facet normal -0.224354 0.634507 0.739639
outer loop
vertex -0.326160 1.335625 0.518169
vertex -0.211659 2.235160 -0.218776
vertex -0.282396 2.245014 -0.248686
endloop
endfacet
facet normal -0.407229 0.413396 0.814413
outer loop
vertex 0.125455 2.249688 1.106692
vertex 0.065091 2.436227 0.981819
vertex 0.042291 2.425666 0.975779
endloop
endfacet
facet normal -0.409165 0.412218 0.814039
outer loop
vertex 0.125455 2.249688 1.106692
vertex 0.042291 2.425666 0.975779
vertex 0.105063 2.239460 1.101622
endloop
endfacet
facet normal 0.874494 0.431400 0.221707
outer loop
vertex 0.189250 2.312726 0.732400
vertex 0.065091 2.436227 0.981819
vertex 0.125455 2.249688 1.106692
endloop
endfacet
facet normal 0.461167 -0.884518 -0.070369
outer loop
vertex 0.189250 2.312726 0.732400
vertex 0.125455 2.249688 1.106692
vertex 0.105063 2.239460 1.101622
endloop
endfacet
facet normal 0.416853 -0.905034 -0.084539
outer loop
vertex 0.189250 2.312726 0.732400
vertex 0.105063 2.239460 1.101622
vertex 0.166329 2.302786 0.725790
endloop
endfacet
facet normal -0.871606 -0.439949 -0.216213
outer loop
vertex 0.166329 2.302786 0.725790
vertex 0.105063 2.239460 1.101622
vertex 0.042291 2.425666 0.975779
endloop
endfacet
facet normal -0.895202 -0.354691 -0.269829
outer loop
vertex 0.166329 2.302786 0.725790
vertex 0.042291 2.425666 0.975779
vertex 0.105665 2.552320 0.599039
endloop
endfacet
facet normal 0.393349 -0.338637 -0.854752
outer loop
vertex 0.126575 2.560653 0.605334
vertex 0.189250 2.312726 0.732400
vertex 0.166329 2.302786 0.725790
endloop
endfacet
facet normal 0.392480 -0.338908 -0.855044
outer loop
vertex 0.126575 2.560653 0.605334
vertex 0.166329 2.302786 0.725790
vertex 0.105665 2.552320 0.599039
endloop
endfacet
facet normal -0.418057 0.880679 0.222785
outer loop
vertex 0.065091 2.436227 0.981819
vertex 0.126575 2.560653 0.605334
vertex 0.105665 2.552320 0.599039
endloop
endfacet
facet normal -0.456623 0.863654 0.213534
outer loop
vertex 0.065091 2.436227 0.981819
vertex 0.105665 2.552320 0.599039
vertex 0.042291 2.425666 0.975779
endloop
endfacet
facet normal 0.893554 0.361991 0.265562
outer loop
vertex 0.189250 2.312726 0.732400
vertex 0.126575 2.560653 0.605334
vertex 0.065091 2.436227 0.981819
endloop
endfacet
facet normal 0.409165 0.412218 0.814039
outer loop
vertex -0.125455 2.249688 1.106692
vertex -0.105063 2.239460 1.101622
vertex -0.042291 2.425666 0.975779
endloop
endfacet
facet normal 0.407229 0.413396 0.814413
outer loop
vertex -0.125455 2.249688 1.106692
vertex -0.042291 2.425666 0.975779
vertex -0.065091 2.436227 0.981819
endloop
endfacet
facet normal -0.874494 0.431400 0.221707
outer loop
vertex -0.189250 2.312726 0.732400
vertex -0.125455 2.249688 1.106692
vertex -0.065091 2.436227 0.981819
endloop
endfacet
facet normal -0.416853 -0.905034 -0.084539
outer loop
vertex -0.189250 2.312726 0.732400
vertex -0.166329 2.302786 0.725790
vertex -0.105063 2.239460 1.101622
endloop
endfacet
facet normal -0.461167 -0.884518 -0.070369
outer loop
vertex -0.189250 2.312726 0.732400
vertex -0.105063 2.239460 1.101622
vertex -0.125455 2.249688 1.106692
endloop
endfacet
facet normal 0.871606 -0.439949 -0.216213
outer loop
vertex -0.166329 2.302786 0.725790
vertex -0.042291 2.425666 0.975779
vertex -0.105063 2.239460 1.101622
endloop
endfacet
facet normal 0.895202 -0.354691 -0.269829
outer loop
vertex -0.166329 2.302786 0.725790
vertex -0.105665 2.552320 0.599039
vertex -0.042291 2.425666 0.975779
endloop
endfacet
facet normal -0.392480 -0.338908 -0.855044
outer loop
vertex -0.126575 2.560653 0.605334
vertex -0.105665 2.552320 0.599039
vertex -0.166329 2.302786 0.725790
endloop
endfacet
facet normal -0.393349 -0.338637 -0.854752
outer loop
vertex -0.126575 2.560653 0.605334
vertex -0.166329 2.302786 0.725790
vertex -0.189250 2.312726 0.732400
endloop
endfacet
facet normal 0.456623 0.863654 0.213534
outer loop
vertex -0.065091 2.436227 0.981819
vertex -0.042291 2.425666 0.975779
vertex -0.105665 2.552320 0.599039
endloop
endfacet
facet normal 0.418057 0.880679 0.222785
outer loop
vertex -0.065091 2.436227 0.981819
vertex -0.105665 2.552320 0.599039
vertex -0.126575 2.560653 0.605334
endloop
endfacet
facet normal -0.893554 0.361991 0.265562
outer loop
vertex -0.189250 2.312726 0.732400
vertex -0.065091 2.436227 0.981819
vertex -0.126575 2.560653 0.605334
endloop
endfacet
endsolid Exported from Blender-3.4.1
